<!-- Keep in sync with src/components/brand/home-chart-logo-markup.ts -->
<svg xmlns="http://www.w3.org/2000/svg" viewBox="0 0 100 100">
  <circle cx="50" cy="50" r="48" fill="oklch(0.28 0.04 200)"/>
  <g transform="translate(1.2 -4.8) translate(50 51) scale(1.15) translate(-50 -51)">
    <path fill="#fff" d="M26 74.5V49.5L50 31.5 74 49.5V74.5c0 1.4-1.1 2.5-2.5 2.5h-43c-1.4 0-2.5-1.1-2.5-2.5Z"/>
    <path fill="#fff" d="M63 49.5V36.5c0-1.1.9-2 2-2h5c1.1 0 2 .9 2 2v13h-9Z"/>
    <rect x="36" y="58" width="8" height="14" rx="2" fill="oklch(0.28 0.04 200)"/>
    <rect x="46" y="52" width="8" height="20" rx="2" fill="oklch(0.28 0.04 200)"/>
    <rect x="56" y="46" width="8" height="26" rx="2" fill="oklch(0.28 0.04 200)"/>
  </g>
</svg>
